<mxfile host="app.diagrams.net" agent="Mozilla/5.0 (X11; Linux x86_64) AppleWebKit/537.36 (KHTML, like Gecko) Chrome/129.0.0.0 Safari/537.36" version="24.8.4">
  <diagram id="C5RBs43oDa-KdzZeNtuy" name="Page-1">
    <mxGraphModel dx="2651" dy="2298" grid="1" gridSize="10" guides="1" tooltips="1" connect="1" arrows="1" fold="1" page="1" pageScale="1" pageWidth="827" pageHeight="1169" math="0" shadow="0">
      <root>
        <mxCell id="WIyWlLk6GJQsqaUBKTNV-0" />
        <mxCell id="WIyWlLk6GJQsqaUBKTNV-1" parent="WIyWlLk6GJQsqaUBKTNV-0" />
        <mxCell id="6M9T0hbkF84E4x9BEr2m-0" value="&lt;p style=&quot;margin:0px;margin-top:4px;text-align:center;&quot;&gt;&lt;i&gt;&amp;lt;&amp;lt;Interface&amp;gt;&amp;gt;&lt;/i&gt;&lt;br&gt;&lt;b&gt;Shape&lt;/b&gt;&lt;/p&gt;&lt;hr size=&quot;1&quot; style=&quot;border-style:solid;&quot;&gt;&lt;p style=&quot;margin:0px;margin-left:4px;&quot;&gt;+ draw(Graphics canvas):void&lt;/p&gt;&lt;p style=&quot;margin:0px;margin-left:4px;&quot;&gt;+ setColor(Color color):void&amp;nbsp;&lt;/p&gt;&lt;p style=&quot;margin:0px;margin-left:4px;&quot;&gt;+ getColor(): Color&lt;/p&gt;&lt;p style=&quot;margin:0px;margin-left:4px;&quot;&gt;+ getFillColor() :Color&lt;/p&gt;&lt;p style=&quot;margin:0px;margin-left:4px;&quot;&gt;+ setFillColor(Color color): void&lt;/p&gt;&lt;p style=&quot;margin:0px;margin-left:4px;&quot;&gt;+ setPosition(Point position):void&lt;/p&gt;&lt;p style=&quot;margin:0px;margin-left:4px;&quot;&gt;+ setPosition2(Point endPosition):void&lt;/p&gt;&lt;p style=&quot;margin:0px;margin-left:4px;&quot;&gt;+ getPosition(): Point&lt;/p&gt;&lt;p style=&quot;margin:0px;margin-left:4px;&quot;&gt;+ getPosition2(): Point&lt;/p&gt;&lt;p style=&quot;margin:0px;margin-left:4px;&quot;&gt;+ setProperties(Map&amp;lt;String, Double&amp;gt; properties):void&lt;/p&gt;&lt;p style=&quot;margin:0px;margin-left:4px;&quot;&gt;+ getProperties():&amp;nbsp;&lt;span style=&quot;background-color: initial;&quot;&gt;Map&amp;lt;String, Double&amp;gt;&lt;/span&gt;&lt;span style=&quot;background-color: initial;&quot;&gt;&amp;nbsp;&lt;/span&gt;&lt;/p&gt;&lt;p style=&quot;margin:0px;margin-left:4px;&quot;&gt;&lt;br&gt;&lt;/p&gt;" style="verticalAlign=top;align=left;overflow=fill;html=1;whiteSpace=wrap;fillColor=#f8cecc;strokeColor=#b85450;rounded=1;" vertex="1" parent="WIyWlLk6GJQsqaUBKTNV-1">
          <mxGeometry x="550" y="40" width="230" height="260" as="geometry" />
        </mxCell>
        <mxCell id="6M9T0hbkF84E4x9BEr2m-5" value="" style="endArrow=block;dashed=1;endFill=0;endSize=12;html=1;rounded=0;" edge="1" parent="WIyWlLk6GJQsqaUBKTNV-1">
          <mxGeometry width="160" relative="1" as="geometry">
            <mxPoint x="320" y="170" as="sourcePoint" />
            <mxPoint x="550" y="170" as="targetPoint" />
          </mxGeometry>
        </mxCell>
        <mxCell id="6M9T0hbkF84E4x9BEr2m-6" value="implements" style="edgeLabel;html=1;align=center;verticalAlign=middle;resizable=0;points=[];" vertex="1" connectable="0" parent="6M9T0hbkF84E4x9BEr2m-5">
          <mxGeometry x="-0.0174" y="2" relative="1" as="geometry">
            <mxPoint as="offset" />
          </mxGeometry>
        </mxCell>
        <mxCell id="6M9T0hbkF84E4x9BEr2m-7" value="&lt;i&gt;ShapeAbs {abstract}&lt;/i&gt;" style="swimlane;fontStyle=1;align=center;verticalAlign=top;childLayout=stackLayout;horizontal=1;startSize=26;horizontalStack=0;resizeParent=1;resizeParentMax=0;resizeLast=0;collapsible=1;marginBottom=0;whiteSpace=wrap;html=1;fillColor=#f8cecc;strokeColor=#b85450;rounded=1;" vertex="1" parent="WIyWlLk6GJQsqaUBKTNV-1">
          <mxGeometry x="40" y="-15" width="280" height="340" as="geometry" />
        </mxCell>
        <mxCell id="6M9T0hbkF84E4x9BEr2m-8" value="&lt;div&gt;&amp;nbsp;#&amp;nbsp; color :&amp;nbsp;&lt;span style=&quot;background-color: initial;&quot;&gt;Color&lt;/span&gt;&lt;/div&gt;&lt;div&gt;&amp;nbsp;# fillColor :&amp;nbsp;&lt;span style=&quot;background-color: initial;&quot;&gt;Color&lt;/span&gt;&lt;/div&gt;&lt;div&gt;&amp;nbsp;#&amp;nbsp; position :&amp;nbsp;&lt;span style=&quot;background-color: initial;&quot;&gt;Point&lt;/span&gt;&lt;/div&gt;&lt;div&gt;&amp;nbsp;#&amp;nbsp; endPosition :&amp;nbsp;&lt;span style=&quot;background-color: initial;&quot;&gt;Point&lt;/span&gt;&lt;span style=&quot;background-color: initial;&quot;&gt;&amp;nbsp;&lt;/span&gt;&lt;/div&gt;&lt;div&gt;&amp;nbsp;#&amp;nbsp; properties :&amp;nbsp;&lt;span style=&quot;background-color: initial;&quot;&gt;Map&amp;lt;String, Double&amp;gt;&lt;/span&gt;&lt;/div&gt;" style="text;strokeColor=none;fillColor=none;align=left;verticalAlign=top;spacingLeft=4;spacingRight=4;overflow=hidden;rotatable=0;points=[[0,0.5],[1,0.5]];portConstraint=eastwest;whiteSpace=wrap;html=1;" vertex="1" parent="6M9T0hbkF84E4x9BEr2m-7">
          <mxGeometry y="26" width="280" height="94" as="geometry" />
        </mxCell>
        <mxCell id="6M9T0hbkF84E4x9BEr2m-9" value="" style="line;strokeWidth=1;fillColor=none;align=left;verticalAlign=middle;spacingTop=-1;spacingLeft=3;spacingRight=3;rotatable=0;labelPosition=right;points=[];portConstraint=eastwest;strokeColor=inherit;" vertex="1" parent="6M9T0hbkF84E4x9BEr2m-7">
          <mxGeometry y="120" width="280" height="8" as="geometry" />
        </mxCell>
        <mxCell id="6M9T0hbkF84E4x9BEr2m-10" value="&lt;p style=&quot;margin: 0px 0px 0px 4px;&quot;&gt;+{abstract } draw(Graphics canvas):void&lt;/p&gt;&lt;p style=&quot;margin: 0px 0px 0px 4px;&quot;&gt;+ setColor(Color color):void&amp;nbsp;&lt;/p&gt;&lt;p style=&quot;margin: 0px 0px 0px 4px;&quot;&gt;+ getColor(): Color&lt;/p&gt;&lt;p style=&quot;margin: 0px 0px 0px 4px;&quot;&gt;+ getFillColor() :Color&lt;/p&gt;&lt;p style=&quot;margin: 0px 0px 0px 4px;&quot;&gt;+ setFillColor(Color color): void&lt;/p&gt;&lt;p style=&quot;margin: 0px 0px 0px 4px;&quot;&gt;+ setPosition(Point position):void&lt;/p&gt;&lt;p style=&quot;margin: 0px 0px 0px 4px;&quot;&gt;+ setPosition2(Point endPosition):void&lt;/p&gt;&lt;p style=&quot;margin: 0px 0px 0px 4px;&quot;&gt;+ getPosition(): Point&lt;/p&gt;&lt;p style=&quot;margin: 0px 0px 0px 4px;&quot;&gt;+ getPosition2(): Point&lt;/p&gt;&lt;p style=&quot;margin: 0px 0px 0px 4px;&quot;&gt;+ setProperties(Map&amp;lt;String, Double&amp;gt; properties):void&lt;/p&gt;&lt;p style=&quot;margin: 0px 0px 0px 4px;&quot;&gt;+ getProperties():&amp;nbsp;&lt;span style=&quot;background-color: initial;&quot;&gt;Map&amp;lt;String, Double&amp;gt;&lt;/span&gt;&lt;span style=&quot;background-color: initial;&quot;&gt;&amp;nbsp;&lt;/span&gt;&lt;/p&gt;" style="text;strokeColor=none;fillColor=none;align=left;verticalAlign=top;spacingLeft=4;spacingRight=4;overflow=hidden;rotatable=0;points=[[0,0.5],[1,0.5]];portConstraint=eastwest;whiteSpace=wrap;html=1;" vertex="1" parent="6M9T0hbkF84E4x9BEr2m-7">
          <mxGeometry y="128" width="280" height="212" as="geometry" />
        </mxCell>
        <mxCell id="6M9T0hbkF84E4x9BEr2m-15" value="Rectangle" style="swimlane;fontStyle=1;align=center;verticalAlign=top;childLayout=stackLayout;horizontal=1;startSize=26;horizontalStack=0;resizeParent=1;resizeParentMax=0;resizeLast=0;collapsible=1;marginBottom=0;whiteSpace=wrap;html=1;fillColor=#f8cecc;strokeColor=#b85450;rounded=1;" vertex="1" parent="WIyWlLk6GJQsqaUBKTNV-1">
          <mxGeometry x="310" y="-220" width="180" height="130" as="geometry" />
        </mxCell>
        <mxCell id="6M9T0hbkF84E4x9BEr2m-16" value="- length: int&lt;div&gt;- width : int&lt;/div&gt;" style="text;strokeColor=none;fillColor=none;align=left;verticalAlign=top;spacingLeft=4;spacingRight=4;overflow=hidden;rotatable=0;points=[[0,0.5],[1,0.5]];portConstraint=eastwest;whiteSpace=wrap;html=1;" vertex="1" parent="6M9T0hbkF84E4x9BEr2m-15">
          <mxGeometry y="26" width="180" height="44" as="geometry" />
        </mxCell>
        <mxCell id="6M9T0hbkF84E4x9BEr2m-17" value="" style="line;strokeWidth=1;fillColor=none;align=left;verticalAlign=middle;spacingTop=-1;spacingLeft=3;spacingRight=3;rotatable=0;labelPosition=right;points=[];portConstraint=eastwest;strokeColor=inherit;" vertex="1" parent="6M9T0hbkF84E4x9BEr2m-15">
          <mxGeometry y="70" width="180" height="8" as="geometry" />
        </mxCell>
        <mxCell id="6M9T0hbkF84E4x9BEr2m-18" value="+ draw(Graphics canvas):void" style="text;strokeColor=none;fillColor=none;align=left;verticalAlign=top;spacingLeft=4;spacingRight=4;overflow=hidden;rotatable=0;points=[[0,0.5],[1,0.5]];portConstraint=eastwest;whiteSpace=wrap;html=1;" vertex="1" parent="6M9T0hbkF84E4x9BEr2m-15">
          <mxGeometry y="78" width="180" height="52" as="geometry" />
        </mxCell>
        <mxCell id="6M9T0hbkF84E4x9BEr2m-19" value="Extends" style="endArrow=block;endSize=16;endFill=0;html=1;rounded=0;entryX=0.436;entryY=-0.003;entryDx=0;entryDy=0;entryPerimeter=0;exitX=-0.017;exitY=0.773;exitDx=0;exitDy=0;exitPerimeter=0;" edge="1" parent="WIyWlLk6GJQsqaUBKTNV-1" source="6M9T0hbkF84E4x9BEr2m-16" target="6M9T0hbkF84E4x9BEr2m-7">
          <mxGeometry width="160" relative="1" as="geometry">
            <mxPoint x="306" y="-120" as="sourcePoint" />
            <mxPoint x="300" y="-70" as="targetPoint" />
            <Array as="points">
              <mxPoint x="160" y="-160" />
            </Array>
          </mxGeometry>
        </mxCell>
        <mxCell id="6M9T0hbkF84E4x9BEr2m-20" value="Square" style="swimlane;fontStyle=1;align=center;verticalAlign=top;childLayout=stackLayout;horizontal=1;startSize=26;horizontalStack=0;resizeParent=1;resizeParentMax=0;resizeLast=0;collapsible=1;marginBottom=0;whiteSpace=wrap;html=1;fillColor=#f8cecc;strokeColor=#b85450;rounded=1;" vertex="1" parent="WIyWlLk6GJQsqaUBKTNV-1">
          <mxGeometry x="570" y="-145" width="180" height="110" as="geometry" />
        </mxCell>
        <mxCell id="6M9T0hbkF84E4x9BEr2m-21" value="- side : int" style="text;strokeColor=none;fillColor=none;align=left;verticalAlign=top;spacingLeft=4;spacingRight=4;overflow=hidden;rotatable=0;points=[[0,0.5],[1,0.5]];portConstraint=eastwest;whiteSpace=wrap;html=1;" vertex="1" parent="6M9T0hbkF84E4x9BEr2m-20">
          <mxGeometry y="26" width="180" height="34" as="geometry" />
        </mxCell>
        <mxCell id="6M9T0hbkF84E4x9BEr2m-22" value="" style="line;strokeWidth=1;fillColor=none;align=left;verticalAlign=middle;spacingTop=-1;spacingLeft=3;spacingRight=3;rotatable=0;labelPosition=right;points=[];portConstraint=eastwest;strokeColor=inherit;" vertex="1" parent="6M9T0hbkF84E4x9BEr2m-20">
          <mxGeometry y="60" width="180" height="8" as="geometry" />
        </mxCell>
        <mxCell id="6M9T0hbkF84E4x9BEr2m-23" value="+ draw(Graphics canvas):void" style="text;strokeColor=none;fillColor=none;align=left;verticalAlign=top;spacingLeft=4;spacingRight=4;overflow=hidden;rotatable=0;points=[[0,0.5],[1,0.5]];portConstraint=eastwest;whiteSpace=wrap;html=1;" vertex="1" parent="6M9T0hbkF84E4x9BEr2m-20">
          <mxGeometry y="68" width="180" height="42" as="geometry" />
        </mxCell>
        <mxCell id="6M9T0hbkF84E4x9BEr2m-24" value="Extends" style="endArrow=block;endSize=16;endFill=0;html=1;rounded=0;entryX=1.007;entryY=0.05;entryDx=0;entryDy=0;exitX=0.606;exitY=0.976;exitDx=0;exitDy=0;exitPerimeter=0;entryPerimeter=0;" edge="1" parent="WIyWlLk6GJQsqaUBKTNV-1" source="6M9T0hbkF84E4x9BEr2m-23" target="6M9T0hbkF84E4x9BEr2m-7">
          <mxGeometry width="160" relative="1" as="geometry">
            <mxPoint x="317" y="-150" as="sourcePoint" />
            <mxPoint x="172" y="-6" as="targetPoint" />
            <Array as="points">
              <mxPoint x="680" />
            </Array>
          </mxGeometry>
        </mxCell>
        <mxCell id="6M9T0hbkF84E4x9BEr2m-25" value="Circle&lt;div&gt;&lt;br&gt;&lt;/div&gt;" style="swimlane;fontStyle=1;align=center;verticalAlign=top;childLayout=stackLayout;horizontal=1;startSize=26;horizontalStack=0;resizeParent=1;resizeParentMax=0;resizeLast=0;collapsible=1;marginBottom=0;whiteSpace=wrap;html=1;fillColor=#f8cecc;strokeColor=#b85450;rounded=1;" vertex="1" parent="WIyWlLk6GJQsqaUBKTNV-1">
          <mxGeometry x="90" y="430" width="180" height="90" as="geometry" />
        </mxCell>
        <mxCell id="6M9T0hbkF84E4x9BEr2m-26" value="- radius : int" style="text;strokeColor=none;fillColor=none;align=left;verticalAlign=top;spacingLeft=4;spacingRight=4;overflow=hidden;rotatable=0;points=[[0,0.5],[1,0.5]];portConstraint=eastwest;whiteSpace=wrap;html=1;" vertex="1" parent="6M9T0hbkF84E4x9BEr2m-25">
          <mxGeometry y="26" width="180" height="24" as="geometry" />
        </mxCell>
        <mxCell id="6M9T0hbkF84E4x9BEr2m-27" value="" style="line;strokeWidth=1;fillColor=none;align=left;verticalAlign=middle;spacingTop=-1;spacingLeft=3;spacingRight=3;rotatable=0;labelPosition=right;points=[];portConstraint=eastwest;strokeColor=inherit;" vertex="1" parent="6M9T0hbkF84E4x9BEr2m-25">
          <mxGeometry y="50" width="180" height="8" as="geometry" />
        </mxCell>
        <mxCell id="6M9T0hbkF84E4x9BEr2m-28" value="+ draw(Graphics canvas):void" style="text;strokeColor=none;fillColor=none;align=left;verticalAlign=top;spacingLeft=4;spacingRight=4;overflow=hidden;rotatable=0;points=[[0,0.5],[1,0.5]];portConstraint=eastwest;whiteSpace=wrap;html=1;" vertex="1" parent="6M9T0hbkF84E4x9BEr2m-25">
          <mxGeometry y="58" width="180" height="32" as="geometry" />
        </mxCell>
        <mxCell id="6M9T0hbkF84E4x9BEr2m-29" value="Extends" style="endArrow=block;endSize=16;endFill=0;html=1;rounded=0;exitX=0.556;exitY=-0.033;exitDx=0;exitDy=0;exitPerimeter=0;entryX=0.55;entryY=0.995;entryDx=0;entryDy=0;entryPerimeter=0;" edge="1" parent="WIyWlLk6GJQsqaUBKTNV-1" source="6M9T0hbkF84E4x9BEr2m-25" target="6M9T0hbkF84E4x9BEr2m-10">
          <mxGeometry width="160" relative="1" as="geometry">
            <mxPoint x="689" y="-26" as="sourcePoint" />
            <mxPoint x="190" y="330" as="targetPoint" />
            <Array as="points" />
          </mxGeometry>
        </mxCell>
        <mxCell id="6M9T0hbkF84E4x9BEr2m-30" value="&lt;div&gt;Line&lt;/div&gt;" style="swimlane;fontStyle=1;align=center;verticalAlign=top;childLayout=stackLayout;horizontal=1;startSize=26;horizontalStack=0;resizeParent=1;resizeParentMax=0;resizeLast=0;collapsible=1;marginBottom=0;whiteSpace=wrap;html=1;fillColor=#f8cecc;strokeColor=#b85450;rounded=1;" vertex="1" parent="WIyWlLk6GJQsqaUBKTNV-1">
          <mxGeometry x="590" y="420" width="180" height="58" as="geometry" />
        </mxCell>
        <mxCell id="6M9T0hbkF84E4x9BEr2m-33" value="+ draw(Graphics canvas):void" style="text;strokeColor=none;fillColor=none;align=left;verticalAlign=top;spacingLeft=4;spacingRight=4;overflow=hidden;rotatable=0;points=[[0,0.5],[1,0.5]];portConstraint=eastwest;whiteSpace=wrap;html=1;" vertex="1" parent="6M9T0hbkF84E4x9BEr2m-30">
          <mxGeometry y="26" width="180" height="32" as="geometry" />
        </mxCell>
        <mxCell id="6M9T0hbkF84E4x9BEr2m-34" value="Extends" style="endArrow=block;endSize=16;endFill=0;html=1;rounded=0;entryX=0.85;entryY=0.995;entryDx=0;entryDy=0;entryPerimeter=0;" edge="1" parent="WIyWlLk6GJQsqaUBKTNV-1" target="6M9T0hbkF84E4x9BEr2m-10">
          <mxGeometry width="160" relative="1" as="geometry">
            <mxPoint x="590" y="440" as="sourcePoint" />
            <mxPoint x="170" y="339" as="targetPoint" />
            <Array as="points">
              <mxPoint x="278" y="440" />
            </Array>
          </mxGeometry>
        </mxCell>
        <mxCell id="6M9T0hbkF84E4x9BEr2m-35" value="mainFrame&lt;div&gt;&lt;br&gt;&lt;/div&gt;" style="swimlane;fontStyle=1;align=center;verticalAlign=top;childLayout=stackLayout;horizontal=1;startSize=26;horizontalStack=0;resizeParent=1;resizeParentMax=0;resizeLast=0;collapsible=1;marginBottom=0;whiteSpace=wrap;html=1;fillColor=#f8cecc;strokeColor=#b85450;rounded=1;" vertex="1" parent="WIyWlLk6GJQsqaUBKTNV-1">
          <mxGeometry x="430" y="585" width="350" height="350" as="geometry" />
        </mxCell>
        <mxCell id="6M9T0hbkF84E4x9BEr2m-36" value="-&amp;nbsp;circleNumbers : int&lt;div&gt;- rectangleNumbers : int&lt;/div&gt;&lt;div&gt;&lt;span style=&quot;background-color: initial;&quot;&gt;-&amp;nbsp;&lt;/span&gt;&lt;span style=&quot;background-color: initial;&quot;&gt;squareNumbers : int&lt;/span&gt;&lt;/div&gt;&lt;div&gt;&lt;span style=&quot;background-color: initial;&quot;&gt;-&amp;nbsp;&lt;/span&gt;&lt;span style=&quot;background-color: initial;&quot;&gt;lineNumbers : int&lt;/span&gt;&lt;/div&gt;&lt;div&gt;&lt;span style=&quot;background-color: initial;&quot;&gt;- outer : boolean&lt;/span&gt;&lt;/div&gt;&lt;div&gt;&lt;span style=&quot;background-color: initial;&quot;&gt;-&amp;nbsp;&lt;/span&gt;&lt;span style=&quot;background-color: initial;&quot;&gt;inner : boolean&lt;/span&gt;&lt;/div&gt;&lt;div&gt;&lt;span style=&quot;background-color: initial;&quot;&gt;-&amp;nbsp;&lt;/span&gt;&lt;span style=&quot;background-color: initial;&quot;&gt;rectangleButton : Jbutton&lt;/span&gt;&lt;/div&gt;&lt;div&gt;&lt;span style=&quot;background-color: initial;&quot;&gt;-&amp;nbsp;&lt;/span&gt;&lt;span style=&quot;background-color: initial;&quot;&gt;squareButton : Jbutton&lt;/span&gt;&lt;/div&gt;&lt;div&gt;&lt;span style=&quot;background-color: initial;&quot;&gt;- circl&lt;/span&gt;&lt;span style=&quot;background-color: initial;&quot;&gt;eButton :&amp;nbsp;&lt;/span&gt;&lt;span style=&quot;background-color: initial;&quot;&gt;Jbutton&lt;/span&gt;&lt;/div&gt;&lt;div&gt;&lt;span style=&quot;background-color: initial;&quot;&gt;- lineButton :&amp;nbsp;&lt;/span&gt;&lt;span style=&quot;background-color: initial;&quot;&gt;Jbutton&lt;/span&gt;&lt;/div&gt;&lt;div&gt;&lt;span style=&quot;background-color: initial;&quot;&gt;-&amp;nbsp;&lt;/span&gt;&lt;span style=&quot;background-color: initial;&quot;&gt;colorizeButton :&amp;nbsp;&lt;/span&gt;&lt;span style=&quot;background-color: initial;&quot;&gt;Jbutton&lt;/span&gt;&lt;/div&gt;&lt;div&gt;&lt;span style=&quot;background-color: initial;&quot;&gt;-&amp;nbsp;&lt;/span&gt;&lt;span style=&quot;background-color: initial;&quot;&gt;deleteButton : Jbutton&lt;/span&gt;&lt;/div&gt;&lt;div&gt;&lt;span style=&quot;background-color: initial;&quot;&gt;-&amp;nbsp;&lt;/span&gt;&lt;span style=&quot;background-color: initial;&quot;&gt;resetButton :&amp;nbsp;&lt;/span&gt;&lt;span style=&quot;background-color: initial;&quot;&gt;Jbutton&lt;/span&gt;&lt;/div&gt;&lt;div&gt;&lt;span style=&quot;background-color: initial;&quot;&gt;- panel1 : Jpanel&lt;/span&gt;&lt;/div&gt;&lt;div&gt;&lt;span style=&quot;background-color: initial;&quot;&gt;- outerFill :&amp;nbsp;&lt;/span&gt;&lt;span style=&quot;background-color: initial;&quot;&gt;JRadioButton&lt;/span&gt;&lt;/div&gt;&lt;div&gt;&lt;span style=&quot;background-color: initial;&quot;&gt;-&amp;nbsp;&lt;/span&gt;&lt;span style=&quot;background-color: initial;&quot;&gt;innerFill&amp;nbsp;&lt;/span&gt;&lt;span style=&quot;background-color: initial;&quot;&gt;:&amp;nbsp;&lt;/span&gt;&lt;span style=&quot;background-color: initial;&quot;&gt;JRadioButton&lt;/span&gt;&lt;/div&gt;&lt;div&gt;&lt;span style=&quot;background-color: initial;&quot;&gt;-&amp;nbsp;&lt;/span&gt;&lt;span style=&quot;background-color: initial;&quot;&gt;comboBox1 :&amp;nbsp;&lt;/span&gt;&lt;span style=&quot;background-color: initial;&quot;&gt;JComboBox&amp;lt;String&amp;gt;&lt;/span&gt;&lt;/div&gt;" style="text;strokeColor=none;fillColor=none;align=left;verticalAlign=top;spacingLeft=4;spacingRight=4;overflow=hidden;rotatable=0;points=[[0,0.5],[1,0.5]];portConstraint=eastwest;whiteSpace=wrap;html=1;" vertex="1" parent="6M9T0hbkF84E4x9BEr2m-35">
          <mxGeometry y="26" width="350" height="264" as="geometry" />
        </mxCell>
        <mxCell id="6M9T0hbkF84E4x9BEr2m-37" value="" style="line;strokeWidth=1;fillColor=none;align=left;verticalAlign=middle;spacingTop=-1;spacingLeft=3;spacingRight=3;rotatable=0;labelPosition=right;points=[];portConstraint=eastwest;strokeColor=inherit;" vertex="1" parent="6M9T0hbkF84E4x9BEr2m-35">
          <mxGeometry y="290" width="350" height="8" as="geometry" />
        </mxCell>
        <mxCell id="6M9T0hbkF84E4x9BEr2m-38" value="+ initComponents() : void&lt;div&gt;+ actionPerfomed(ActionEvent) : Void&lt;/div&gt;" style="text;strokeColor=none;fillColor=none;align=left;verticalAlign=top;spacingLeft=4;spacingRight=4;overflow=hidden;rotatable=0;points=[[0,0.5],[1,0.5]];portConstraint=eastwest;whiteSpace=wrap;html=1;" vertex="1" parent="6M9T0hbkF84E4x9BEr2m-35">
          <mxGeometry y="298" width="350" height="52" as="geometry" />
        </mxCell>
        <mxCell id="6M9T0hbkF84E4x9BEr2m-39" value="Panel" style="swimlane;fontStyle=1;align=center;verticalAlign=top;childLayout=stackLayout;horizontal=1;startSize=26;horizontalStack=0;resizeParent=1;resizeParentMax=0;resizeLast=0;collapsible=1;marginBottom=0;whiteSpace=wrap;html=1;fillColor=#f8cecc;strokeColor=#b85450;rounded=1;" vertex="1" parent="WIyWlLk6GJQsqaUBKTNV-1">
          <mxGeometry x="-10" y="610" width="280" height="110" as="geometry" />
        </mxCell>
        <mxCell id="6M9T0hbkF84E4x9BEr2m-40" value="+&amp;nbsp;shapes2 :&amp;nbsp;ArrayList&amp;lt;ShapeAbs&amp;gt;" style="text;strokeColor=none;fillColor=none;align=left;verticalAlign=top;spacingLeft=4;spacingRight=4;overflow=hidden;rotatable=0;points=[[0,0.5],[1,0.5]];portConstraint=eastwest;whiteSpace=wrap;html=1;" vertex="1" parent="6M9T0hbkF84E4x9BEr2m-39">
          <mxGeometry y="26" width="280" height="26" as="geometry" />
        </mxCell>
        <mxCell id="6M9T0hbkF84E4x9BEr2m-41" value="" style="line;strokeWidth=1;fillColor=none;align=left;verticalAlign=middle;spacingTop=-1;spacingLeft=3;spacingRight=3;rotatable=0;labelPosition=right;points=[];portConstraint=eastwest;strokeColor=inherit;" vertex="1" parent="6M9T0hbkF84E4x9BEr2m-39">
          <mxGeometry y="52" width="280" height="8" as="geometry" />
        </mxCell>
        <mxCell id="6M9T0hbkF84E4x9BEr2m-42" value="+ Panel() : void&lt;div&gt;+&amp;nbsp;paintComponent(Graphics graphics): void&lt;/div&gt;" style="text;strokeColor=none;fillColor=none;align=left;verticalAlign=top;spacingLeft=4;spacingRight=4;overflow=hidden;rotatable=0;points=[[0,0.5],[1,0.5]];portConstraint=eastwest;whiteSpace=wrap;html=1;" vertex="1" parent="6M9T0hbkF84E4x9BEr2m-39">
          <mxGeometry y="60" width="280" height="50" as="geometry" />
        </mxCell>
        <mxCell id="6M9T0hbkF84E4x9BEr2m-43" value="&lt;p style=&quot;margin:0px;margin-top:4px;text-align:center;&quot;&gt;&lt;i&gt;&amp;lt;&amp;lt;Interface&amp;gt;&amp;gt;&lt;/i&gt;&lt;br&gt;&lt;b&gt;DrawingEngine&lt;/b&gt;&lt;/p&gt;&lt;hr size=&quot;1&quot; style=&quot;border-style:solid;&quot;&gt;&lt;p style=&quot;margin:0px;margin-left:4px;&quot;&gt;+addShape(ShapeAbs shape): void&lt;br&gt;+&amp;nbsp;removeShape(ShapeAbs shape) : void&lt;/p&gt;&lt;p style=&quot;margin:0px;margin-left:4px;&quot;&gt;+&amp;nbsp;getShapes() :&amp;nbsp;ArrayList&amp;lt;ShapeAbs&amp;gt;&lt;/p&gt;&lt;p style=&quot;margin:0px;margin-left:4px;&quot;&gt;+&amp;nbsp;refresh() : void&amp;nbsp;&amp;nbsp;&lt;/p&gt;" style="verticalAlign=top;align=left;overflow=fill;html=1;whiteSpace=wrap;fillColor=#f8cecc;strokeColor=#b85450;rounded=1;" vertex="1" parent="WIyWlLk6GJQsqaUBKTNV-1">
          <mxGeometry x="-270" y="325" width="240" height="140" as="geometry" />
        </mxCell>
        <mxCell id="6M9T0hbkF84E4x9BEr2m-44" value="" style="endArrow=open;html=1;endSize=12;startArrow=diamondThin;startSize=14;startFill=1;edgeStyle=orthogonalEdgeStyle;align=left;verticalAlign=bottom;rounded=0;exitX=0;exitY=0.564;exitDx=0;exitDy=0;exitPerimeter=0;entryX=0.311;entryY=1.041;entryDx=0;entryDy=0;entryPerimeter=0;" edge="1" parent="WIyWlLk6GJQsqaUBKTNV-1" source="6M9T0hbkF84E4x9BEr2m-36" target="6M9T0hbkF84E4x9BEr2m-42">
          <mxGeometry x="-1" y="3" relative="1" as="geometry">
            <mxPoint x="80" y="760" as="sourcePoint" />
            <mxPoint x="433" y="800" as="targetPoint" />
            <Array as="points">
              <mxPoint x="77" y="760" />
            </Array>
          </mxGeometry>
        </mxCell>
        <mxCell id="6M9T0hbkF84E4x9BEr2m-45" value="compostion" style="edgeLabel;html=1;align=center;verticalAlign=middle;resizable=0;points=[];" vertex="1" connectable="0" parent="6M9T0hbkF84E4x9BEr2m-44">
          <mxGeometry x="0.3335" y="1" relative="1" as="geometry">
            <mxPoint as="offset" />
          </mxGeometry>
        </mxCell>
        <mxCell id="6M9T0hbkF84E4x9BEr2m-52" value="" style="endArrow=open;html=1;endSize=12;startArrow=diamondThin;startSize=14;startFill=1;edgeStyle=orthogonalEdgeStyle;align=left;verticalAlign=bottom;rounded=0;exitX=-0.01;exitY=0.719;exitDx=0;exitDy=0;exitPerimeter=0;" edge="1" parent="WIyWlLk6GJQsqaUBKTNV-1" source="6M9T0hbkF84E4x9BEr2m-36" target="6M9T0hbkF84E4x9BEr2m-15">
          <mxGeometry x="-1" y="3" relative="1" as="geometry">
            <mxPoint x="140" y="810" as="sourcePoint" />
            <mxPoint x="-360" y="-210" as="targetPoint" />
            <Array as="points">
              <mxPoint x="-530" y="801" />
              <mxPoint x="-530" y="-210" />
            </Array>
          </mxGeometry>
        </mxCell>
        <mxCell id="6M9T0hbkF84E4x9BEr2m-53" value="compostion" style="edgeLabel;html=1;align=center;verticalAlign=middle;resizable=0;points=[];" vertex="1" connectable="0" parent="6M9T0hbkF84E4x9BEr2m-52">
          <mxGeometry x="-0.787" relative="1" as="geometry">
            <mxPoint as="offset" />
          </mxGeometry>
        </mxCell>
        <mxCell id="6M9T0hbkF84E4x9BEr2m-54" value="" style="endArrow=open;html=1;endSize=12;startArrow=diamondThin;startSize=14;startFill=1;edgeStyle=orthogonalEdgeStyle;align=left;verticalAlign=bottom;rounded=0;exitX=0.706;exitY=0.002;exitDx=0;exitDy=0;exitPerimeter=0;entryX=0;entryY=0.5;entryDx=0;entryDy=0;" edge="1" parent="WIyWlLk6GJQsqaUBKTNV-1" source="6M9T0hbkF84E4x9BEr2m-35" target="6M9T0hbkF84E4x9BEr2m-33">
          <mxGeometry x="-1" y="3" relative="1" as="geometry">
            <mxPoint x="660" y="570" as="sourcePoint" />
            <mxPoint x="820" y="570" as="targetPoint" />
            <Array as="points">
              <mxPoint x="677" y="531" />
              <mxPoint x="460" y="531" />
              <mxPoint x="460" y="462" />
            </Array>
          </mxGeometry>
        </mxCell>
        <mxCell id="6M9T0hbkF84E4x9BEr2m-55" value="compostion" style="edgeLabel;html=1;align=center;verticalAlign=middle;resizable=0;points=[];" vertex="1" connectable="0" parent="6M9T0hbkF84E4x9BEr2m-54">
          <mxGeometry x="-0.2544" y="-2" relative="1" as="geometry">
            <mxPoint as="offset" />
          </mxGeometry>
        </mxCell>
        <mxCell id="6M9T0hbkF84E4x9BEr2m-56" value="" style="endArrow=open;html=1;endSize=12;startArrow=diamondThin;startSize=14;startFill=1;edgeStyle=orthogonalEdgeStyle;align=left;verticalAlign=bottom;rounded=0;exitX=0.002;exitY=0.041;exitDx=0;exitDy=0;exitPerimeter=0;entryX=1.025;entryY=0.928;entryDx=0;entryDy=0;entryPerimeter=0;" edge="1" parent="WIyWlLk6GJQsqaUBKTNV-1" source="6M9T0hbkF84E4x9BEr2m-36" target="6M9T0hbkF84E4x9BEr2m-26">
          <mxGeometry x="-1" y="3" relative="1" as="geometry">
            <mxPoint x="210" y="560" as="sourcePoint" />
            <mxPoint x="370" y="560" as="targetPoint" />
          </mxGeometry>
        </mxCell>
        <mxCell id="6M9T0hbkF84E4x9BEr2m-57" value="compostion" style="edgeLabel;html=1;align=center;verticalAlign=middle;resizable=0;points=[];" vertex="1" connectable="0" parent="6M9T0hbkF84E4x9BEr2m-56">
          <mxGeometry x="-0.0039" relative="1" as="geometry">
            <mxPoint as="offset" />
          </mxGeometry>
        </mxCell>
        <mxCell id="6M9T0hbkF84E4x9BEr2m-58" value="" style="endArrow=open;html=1;endSize=12;startArrow=diamondThin;startSize=14;startFill=1;edgeStyle=orthogonalEdgeStyle;align=left;verticalAlign=bottom;rounded=0;entryX=1;entryY=0.5;entryDx=0;entryDy=0;exitX=0.049;exitY=0.012;exitDx=0;exitDy=0;exitPerimeter=0;" edge="1" parent="WIyWlLk6GJQsqaUBKTNV-1">
          <mxGeometry x="-1" y="3" relative="1" as="geometry">
            <mxPoint x="447.1500000000001" y="585.0000000000002" as="sourcePoint" />
            <mxPoint x="750" y="-106.2" as="targetPoint" />
            <Array as="points">
              <mxPoint x="447" y="366.8" />
              <mxPoint x="800" y="366.8" />
              <mxPoint x="800" y="-106.2" />
            </Array>
          </mxGeometry>
        </mxCell>
        <mxCell id="6M9T0hbkF84E4x9BEr2m-59" value="compostion" style="edgeLabel;html=1;align=center;verticalAlign=middle;resizable=0;points=[];" vertex="1" connectable="0" parent="6M9T0hbkF84E4x9BEr2m-58">
          <mxGeometry x="-0.17" y="1" relative="1" as="geometry">
            <mxPoint as="offset" />
          </mxGeometry>
        </mxCell>
        <mxCell id="6M9T0hbkF84E4x9BEr2m-60" value="" style="endArrow=open;html=1;endSize=12;startArrow=diamondThin;startSize=14;startFill=1;edgeStyle=orthogonalEdgeStyle;align=left;verticalAlign=bottom;rounded=0;exitX=0.5;exitY=1;exitDx=0;exitDy=0;entryX=0.003;entryY=0.051;entryDx=0;entryDy=0;entryPerimeter=0;" edge="1" parent="WIyWlLk6GJQsqaUBKTNV-1" source="6M9T0hbkF84E4x9BEr2m-43" target="6M9T0hbkF84E4x9BEr2m-42">
          <mxGeometry x="-1" y="3" relative="1" as="geometry">
            <mxPoint x="-190" y="630" as="sourcePoint" />
            <mxPoint x="-30" y="630" as="targetPoint" />
            <Array as="points">
              <mxPoint x="-150" y="673" />
              <mxPoint x="-30" y="673" />
            </Array>
          </mxGeometry>
        </mxCell>
        <mxCell id="6M9T0hbkF84E4x9BEr2m-61" value="compostion" style="edgeLabel;html=1;align=center;verticalAlign=middle;resizable=0;points=[];" vertex="1" connectable="0" parent="6M9T0hbkF84E4x9BEr2m-60">
          <mxGeometry x="-0.4161" y="4" relative="1" as="geometry">
            <mxPoint as="offset" />
          </mxGeometry>
        </mxCell>
        <mxCell id="6M9T0hbkF84E4x9BEr2m-62" value="" style="endArrow=open;html=1;endSize=12;startArrow=diamondThin;startSize=14;startFill=0;edgeStyle=orthogonalEdgeStyle;align=left;verticalAlign=bottom;rounded=0;entryX=0.061;entryY=0.999;entryDx=0;entryDy=0;exitX=0.147;exitY=-0.001;exitDx=0;exitDy=0;exitPerimeter=0;entryPerimeter=0;" edge="1" parent="WIyWlLk6GJQsqaUBKTNV-1" source="6M9T0hbkF84E4x9BEr2m-39" target="6M9T0hbkF84E4x9BEr2m-10">
          <mxGeometry x="-1" y="3" relative="1" as="geometry">
            <mxPoint x="-50" y="551" as="sourcePoint" />
            <mxPoint x="29.999999999999773" y="209.99999999999977" as="targetPoint" />
            <Array as="points">
              <mxPoint x="31" y="400" />
              <mxPoint x="57" y="400" />
            </Array>
          </mxGeometry>
        </mxCell>
        <mxCell id="6M9T0hbkF84E4x9BEr2m-65" value="aggregation" style="edgeLabel;html=1;align=center;verticalAlign=middle;resizable=0;points=[];" vertex="1" connectable="0" parent="6M9T0hbkF84E4x9BEr2m-62">
          <mxGeometry x="-0.3286" y="1" relative="1" as="geometry">
            <mxPoint as="offset" />
          </mxGeometry>
        </mxCell>
      </root>
    </mxGraphModel>
  </diagram>
</mxfile>
